# xmcd
#
# Track frame offsets:
#	150
#	19547
#	34128
#	53580
#	69012
#	83971
#	102715
#	117450
#	131382
#	146443
#	161732
#	176276
#	193990
#	213618
#	230245
#	246570
#
# Disc length: 3547 seconds
#
# Revision: 0
# Processed by: cddbd v1.5.1PL2 Copyright (c) Steve Scherf et al.
# Submitted via: audiograbber 1.81.02
#
DISCID=e80dd910
DTITLE=Billy *Bubba* King - Line Dance Hits 2
DYEAR=2005
DGENRE=Country
TTITLE0=Modern Day Bonnie And Clyde
TTITLE1=Shang A Lang
TTITLE2=Real World
TTITLE3=Beer For My Horses
TTITLE4=Save A Horse Ride A Cowboy
TTITLE5=I'm Already There
TTITLE6=Bad Case Of Lovin' You
TTITLE7=Sundown In Nashville
TTITLE8=Alone With You
TTITLE9=Closer
TTITLE10=I Might
TTITLE11=Brokenheartsville
TTITLE12=Let's Dance
TTITLE13=I Just Want My Baby Back
TTITLE14=I Need A Breather
TTITLE15=Wave On Wave
EXTD=
EXTT0=
EXTT1=
EXTT2=
EXTT3=
EXTT4=
EXTT5=
EXTT6=
EXTT7=
EXTT8=
EXTT9=
EXTT10=
EXTT11=
EXTT12=
EXTT13=
EXTT14=
EXTT15=
PLAYORDER=
